<svg width="20" height="21" viewBox="0 0 20 21" fill="none" xmlns="http://www.w3.org/2000/svg">
<path fill-rule="evenodd" clip-rule="evenodd" d="M10.9189 2.24678C11.8104 1.81044 12.588 1.66672 13.7944 1.66673C16.8817 1.67952 19.1667 4.28326 19.1667 7.59995C19.1667 10.1315 17.7552 12.577 15.126 14.9416C13.746 16.1828 11.9839 17.4112 10.722 18.0646L10 18.4385L9.27804 18.0646C8.01614 17.4112 6.25412 16.1828 4.87407 14.9416C2.2449 12.577 0.833374 10.1315 0.833374 7.59995C0.833374 4.24777 3.09707 1.66672 6.21216 1.66672C7.37527 1.66672 8.19281 1.82403 9.10155 2.2735C9.41794 2.42998 9.7152 2.6156 9.99168 2.82985C10.2792 2.60288 10.5889 2.40833 10.9189 2.24678Z" fill="#FF3535"/>
</svg>
