<svg width="21" height="21" viewBox="0 0 21 21" fill="none" xmlns="http://www.w3.org/2000/svg">
<path fill-rule="evenodd" clip-rule="evenodd" d="M5.66412 2.80229C5.50428 2.80194 5.3502 2.82003 5.20378 2.85443C5.00307 2.41204 4.73794 2.01515 4.4364 1.7136C3.92459 1.2018 3.1174 1 2 1V2.8C2.6826 2.8 3.07541 2.8982 3.1636 2.9864C3.50378 3.32657 3.8 4.01776 3.8 4.6L3.80905 4.72728L4.69093 10.9005C3.21532 10.977 2.07218 12.1229 2.00111 13.5554L2 14.5C2.08714 15.9795 3.22648 17.1177 4.64892 17.1985L4.85323 17.1989C5.22356 18.2481 6.22398 19 7.4 19C8.5756 19 9.57571 18.2487 9.94636 17.2H12.0536C12.4243 18.2487 13.4244 19 14.6 19C16.0912 19 17.3 17.7912 17.3 16.3C17.3 14.8088 16.0912 13.6 14.6 13.6C13.4244 13.6 12.4243 14.3513 12.0536 15.4H9.94636C9.57571 14.3513 8.5756 13.6 7.4 13.6C6.2244 13.6 5.22429 14.3513 4.85364 15.4H4.7C4.24101 15.3725 3.82928 14.9612 3.79838 14.4461L3.8 13.6C3.82427 13.1332 4.23318 12.7243 4.7446 12.6989L6.52132 12.6993L6.5342 12.7H15.6052L15.738 12.6578C16.4204 12.4413 16.9667 11.9275 17.2253 11.2623L17.3201 11.0746L17.6282 10.4643C17.9469 9.83253 18.2656 9.19968 18.5762 8.58142C19.3369 7.06697 19.8153 6.1045 19.9213 5.86815C20.4654 4.65441 19.3632 3.72022 18.2366 3.70032L5.66412 2.80229ZM15.2924 10.9H6.60154C6.54375 10.8839 6.49972 10.835 6.4911 10.774L5.60919 4.60063L18.104 5.4954C17.8854 5.94126 17.4879 6.73762 16.9676 7.77345L16.9546 7.79941C16.6576 8.39065 16.3393 9.02262 16.0211 9.65354L15.7134 10.2631L15.5968 10.4939L15.5529 10.596C15.5058 10.727 15.4125 10.8346 15.2924 10.9ZM14.6 17.1999C15.097 17.1999 15.5 16.797 15.5 16.2999C15.5 15.8029 15.097 15.3999 14.6 15.3999C14.1029 15.3999 13.7 15.8029 13.7 16.2999C13.7 16.797 14.1029 17.1999 14.6 17.1999ZM8.3 16.2999C8.3 16.797 7.89706 17.1999 7.4 17.1999C6.90294 17.1999 6.5 16.797 6.5 16.2999C6.5 15.8029 6.90294 15.3999 7.4 15.3999C7.89706 15.3999 8.3 15.8029 8.3 16.2999Z" fill="black"/>
</svg>
