<svg width="21" height="20" viewBox="0 0 21 20" fill="none" xmlns="http://www.w3.org/2000/svg">
<path fill-rule="evenodd" clip-rule="evenodd" d="M11.7924 1.42651C12.7552 0.955266 13.595 0.800047 14.8979 0.800063C18.2322 0.813871 20.7 3.62591 20.7 7.20794C20.7 9.94203 19.1756 12.5831 16.3361 15.137C14.8456 16.4775 12.9426 17.804 11.5798 18.5098L10.8 18.9136L10.0203 18.5098C8.65741 17.804 6.75443 16.4775 5.26398 15.137C2.42447 12.5831 0.900024 9.94203 0.900024 7.20794C0.900024 3.58759 3.34482 0.800049 6.70912 0.800049C7.96528 0.800049 8.84821 0.969947 9.82965 1.45537C10.1714 1.62438 10.4924 1.82484 10.791 2.05623C11.1016 1.8111 11.436 1.60099 11.7924 1.42651Z" fill="#FF4848"/>
</svg>
