<svg width="21" height="21" viewBox="0 0 21 21" fill="none" xmlns="http://www.w3.org/2000/svg">
<path fill-rule="evenodd" clip-rule="evenodd" d="M6.46129 2.70252C6.3103 2.70219 6.16474 2.71928 6.02643 2.75177C5.83682 2.33387 5.58638 1.95895 5.30152 1.6741C4.81805 1.19063 4.05554 1 3 1V2.70036C3.64482 2.70036 4.01588 2.79312 4.09919 2.87643C4.42053 3.19778 4.70036 3.8507 4.70036 4.40071L4.7089 4.52095L5.54197 10.3524C4.14804 10.4247 3.06818 11.5072 3.00104 12.8604L3 13.7527C3.08232 15.1503 4.15858 16.2255 5.50228 16.3018L5.69529 16.3021C6.04512 17.2933 6.99015 18.0036 8.10107 18.0036C9.21159 18.0036 10.1563 17.2938 10.5065 16.3032H12.4971C12.8472 17.2938 13.792 18.0036 14.9025 18.0036C16.3111 18.0036 17.453 16.8617 17.453 15.453C17.453 14.0444 16.3111 12.9025 14.9025 12.9025C13.792 12.9025 12.8472 13.6122 12.4971 14.6029H10.5065C10.1563 13.6122 9.21159 12.9025 8.10107 12.9025C6.99055 12.9025 6.0458 13.6122 5.69567 14.6029H5.55054C5.11695 14.5768 4.72802 14.1883 4.69883 13.7018L4.70036 12.9025C4.72328 12.4615 5.10956 12.0752 5.59267 12.0513L7.27104 12.0517L7.2832 12.0523H15.852L15.9775 12.0125C16.6221 11.808 17.1382 11.3226 17.3825 10.6942L17.472 10.5169L17.7631 9.94037C18.0641 9.34358 18.3652 8.74577 18.6586 8.16174C19.3772 6.73112 19.8291 5.82193 19.9292 5.59866C20.4432 4.45211 19.402 3.56963 18.3378 3.55084L6.46129 2.70252ZM15.5566 10.3519H7.34676C7.29217 10.3368 7.25057 10.2905 7.24243 10.2329L6.40934 4.40131L18.2125 5.24655C18.0059 5.66773 17.6305 6.42 17.139 7.39849L17.1267 7.42301C16.8462 7.98152 16.5455 8.57851 16.2448 9.1745L15.9542 9.75031L15.844 9.96837L15.8026 10.0648C15.7581 10.1885 15.67 10.2902 15.5566 10.3519ZM14.9025 16.3032C15.372 16.3032 15.7526 15.9225 15.7526 15.453C15.7526 14.9834 15.372 14.6028 14.9025 14.6028C14.4329 14.6028 14.0523 14.9834 14.0523 15.453C14.0523 15.9225 14.4329 16.3032 14.9025 16.3032ZM8.95125 15.453C8.95125 15.9225 8.57061 16.3032 8.10107 16.3032C7.63153 16.3032 7.25089 15.9225 7.25089 15.453C7.25089 14.9834 7.63153 14.6028 8.10107 14.6028C8.57061 14.6028 8.95125 14.9834 8.95125 15.453Z" fill="black"/>
</svg>
