<svg width="20" height="20" viewBox="0 0 20 20" fill="none" xmlns="http://www.w3.org/2000/svg">
<path fill-rule="evenodd" clip-rule="evenodd" d="M9.99998 19.9C4.53236 19.9 0.0999756 15.4676 0.0999756 9.99996C0.0999756 4.53234 4.53236 0.0999603 9.99998 0.0999603C15.4676 0.0999603 19.9 4.53234 19.9 9.99996C19.9 15.4676 15.4676 19.9 9.99998 19.9ZM9.99997 18.1C14.4735 18.1 18.1 14.4735 18.1 9.99996C18.1 5.52645 14.4735 1.89996 9.99997 1.89996C5.52647 1.89996 1.89998 5.52645 1.89998 9.99996C1.89998 14.4735 5.52647 18.1 9.99997 18.1ZM12.9636 6.66357L8.19998 11.4272L6.13638 9.36357L4.86358 10.6364L8.19998 13.9728L14.2364 7.93636L12.9636 6.66357Z" fill="#27AE60"/>
</svg>
