<svg width="20" height="21" viewBox="0 0 20 21" fill="none" xmlns="http://www.w3.org/2000/svg">
<path fill-rule="evenodd" clip-rule="evenodd" d="M13.7944 1.66673C12.588 1.66672 11.8104 1.81044 10.9189 2.24678C10.5889 2.40833 10.2792 2.60288 9.99168 2.82985C9.7152 2.6156 9.41794 2.42998 9.10155 2.2735C8.19281 1.82403 7.37527 1.66672 6.21216 1.66672C3.09707 1.66672 0.833374 4.24777 0.833374 7.59995C0.833374 10.1315 2.2449 12.577 4.87407 14.9416C6.25412 16.1828 8.01614 17.4112 9.27804 18.0646L10 18.4385L10.722 18.0646C11.9839 17.4112 13.746 16.1828 15.126 14.9416C17.7552 12.577 19.1667 10.1315 19.1667 7.59995C19.1667 4.28326 16.8817 1.67952 13.7944 1.66673ZM17.5001 7.59998C17.5001 9.58333 16.3219 11.6245 14.0115 13.7025C12.7519 14.8354 11.1325 15.9675 10.0001 16.5615C8.86761 15.9675 7.24826 14.8354 5.98864 13.7025C3.67827 11.6245 2.50008 9.58333 2.50008 7.59998C2.50008 5.12318 4.06978 3.33342 6.2122 3.33342C7.13698 3.33342 7.70685 3.44308 8.36269 3.76745C8.75009 3.95906 9.09248 4.21206 9.38886 4.52823L10.002 5.18234L10.6096 4.52304C10.9127 4.19421 11.2601 3.93545 11.6517 3.74377C12.2883 3.43216 12.8226 3.33342 13.791 3.33343C15.9069 3.34219 17.5001 5.15756 17.5001 7.59998Z" fill="black"/>
</svg>
